<svg id="e9UHuwSa48q1" xmlns="http://www.w3.org/2000/svg" xmlns:xlink="http://www.w3.org/1999/xlink" viewBox="0 0 424.26 424.26" shape-rendering="geometricPrecision" text-rendering="geometricPrecision"><ellipse rx="212.13" ry="212.13" transform="translate(212.135509 212.13)" fill="#ebeeff" stroke-width="0"/><rect width="44.18" height="183.084" rx="3" ry="3" transform="matrix(1 0 0 1.33678 62.130248 117.386023)" fill="#4a6cf7" stroke-width="0"/><rect width="35.3941" height="188.884" rx="3" ry="3" transform="matrix(1.24823 0 0 1.29159 190.040253 62.129825)" fill="#4a6cf7" stroke-width="0"/><rect width="30.58" height="187.142" rx="4" ry="4" transform="matrix(0 1.44474-.631614 0 180.331254 62.129825)" fill="#4a6cf7" stroke-width="0"/><rect width="44.18" height="177.825" rx="4" ry="4" transform="matrix(0 1-.664699 0 234.220253 317.949823)" fill="#4a6cf7" stroke-width="0"/><rect width="44.18" height="177.825" rx="4" ry="4" transform="matrix(0 1-.664699 0 362.130254 62.129825)" fill="#4a6cf7" stroke-width="0"/><rect width="44.18" height="176.221" rx="3" ry="3" transform="matrix(1 0 0 1.3844 317.950254 118.169823)" fill="#4a6cf7" stroke-width="0"/><rect width="30.58" height="187.142" rx="4" ry="4" transform="matrix(.019519-1.73579 0.278319-.324214 254.605253 232.923823)" fill="#4a6cf7" stroke-width="0"/><path d="M178.32,44.18l-.000001,31.700508l27.11584,23.583202l16.380183-18.676789L178.32,44.18Z" transform="matrix(.794119 0 0 0.782846 102.322953 84.583723)" opacity="0.5" fill="#4a6cf7" stroke-width="0.6"/></svg>
