<svg id="eTnYRPDjESd1" xmlns="http://www.w3.org/2000/svg" xmlns:xlink="http://www.w3.org/1999/xlink" viewBox="0 0 300 300" shape-rendering="geometricPrecision" text-rendering="geometricPrecision"><rect width="44.18" height="183.084" rx="3" ry="3" transform="matrix(1 0 0 1.336782-.000005 55.25622)" fill="#4a6cf7" stroke-width="0"/><rect width="35.394118" height="188.884" rx="3" ry="3" transform="matrix(1.24823 0 0 1.291595 127.91 0.000002)" fill="#4a6cf7" stroke-width="0"/><rect width="30.58" height="187.142" rx="4" ry="4" transform="matrix(0 1.444736-.631614 0 118.2014 0.000002)" fill="#4a6cf7" stroke-width="0"/><rect width="44.18" height="177.82485" rx="4" ry="4" transform="matrix(0 1-.664699 0 172.090003 255.82)" fill="#4a6cf7" stroke-width="0"/><rect width="44.18" height="177.82485" rx="4" ry="4" transform="matrix(0 1-.664699 0 300 0.000002)" fill="#4a6cf7" stroke-width="0"/><rect width="44.18" height="176.220745" rx="3" ry="3" transform="matrix(1 0 0 1.3844 255.82 56.04)" fill="#4a6cf7" stroke-width="0"/><rect width="30.58" height="187.142" rx="4" ry="4" transform="matrix(.019519-1.735785 0.278319-.324214 192.474963 170.794332)" fill="#4a6cf7" stroke-width="0"/><path d="M178.32,44.18l-.000001,31.700508l27.11584,23.583202l16.380183-18.676789L178.32,44.18Z" transform="matrix(.794119 0 0 0.782846 40.192701 22.453864)" opacity="0.5" fill="#4a6cf7" stroke-width="0.6"/></svg>
