<svg width="24" height="24" viewBox="0 0 24 24" fill="none" xmlns="http://www.w3.org/2000/svg">
<g clip-path="url(#clip0_434_377)">
<mask id="mask0_434_377" style="mask-type:luminance" maskUnits="userSpaceOnUse" x="1" y="0" width="23" height="16">
<path d="M22.2834 15.0603C22.6521 15.1701 23.0423 14.9605 23.1296 14.5857C23.7564 11.8937 23.3936 9.05678 22.0931 6.60028C20.6837 3.93788 18.2856 1.93509 15.4146 1.02275C12.5437 0.110413 9.4293 0.361429 6.7415 1.7218C4.26154 2.97698 2.32759 5.08406 1.28547 7.64408C1.1404 8.0004 1.33794 8.39685 1.70244 8.52008C2.06692 8.6433 2.46006 8.4465 2.6081 8.09138C3.53121 5.8769 5.21657 4.05524 7.3707 2.96496C9.73275 1.76947 12.4697 1.54888 14.9927 2.35064C17.5157 3.15241 19.6232 4.91246 20.8617 7.25216C21.9913 9.38595 22.3159 11.8463 21.7913 14.1874C21.7072 14.5629 21.9146 14.9506 22.2834 15.0603Z" fill="white"/>
</mask>
<g mask="url(#mask0_434_377)">
<path d="M22.2834 15.0603C22.6521 15.1701 23.0423 14.9605 23.1296 14.5857C23.7564 11.8937 23.3936 9.05678 22.0931 6.60028C20.6837 3.93788 18.2856 1.93509 15.4146 1.02275C12.5437 0.110413 9.4293 0.361429 6.7415 1.7218C4.26154 2.97698 2.32759 5.08406 1.28547 7.64408C1.1404 8.0004 1.33794 8.39685 1.70244 8.52008C2.06692 8.6433 2.46006 8.4465 2.6081 8.09138C3.53121 5.8769 5.21657 4.05524 7.3707 2.96496C9.73275 1.76947 12.4697 1.54888 14.9927 2.35064C17.5157 3.15241 19.6232 4.91246 20.8617 7.25216C21.9913 9.38595 22.3159 11.8463 21.7913 14.1874C21.7072 14.5629 21.9146 14.9506 22.2834 15.0603Z" fill="#FF0000" stroke="#FF0000"/>
</g>
<path d="M1.46989 9.60322C1.09474 9.5178 0.719158 9.75255 0.656635 10.1322C0.229734 12.7243 0.702895 15.3928 2.0096 17.6879C3.43154 20.1854 5.73736 22.0597 8.47266 22.9415C11.208 23.8234 14.1744 23.6486 16.7872 22.4518C19.1884 21.352 21.131 19.4623 22.2984 17.1089C22.4694 16.7643 22.3016 16.3543 21.9472 16.2046C21.5929 16.0548 21.1863 16.222 21.0124 16.5652C19.9826 18.5983 18.2914 20.2303 16.207 21.1851C13.9108 22.2368 11.304 22.3903 8.90016 21.6154C6.4964 20.8405 4.47003 19.1933 3.22044 16.9985C2.0861 15.0061 1.66653 12.6937 2.01808 10.4419C2.07743 10.0618 1.84505 9.68857 1.46989 9.60322Z" fill="#5A5A5C"/>
<path d="M1.10358 8.30588C1.10358 7.90905 1.42526 7.58738 1.82208 7.58738H14.0481V8.73698H1.53468C1.29658 8.73698 1.10358 8.54393 1.10358 8.30588Z" fill="#FF0000"/>
<path d="M11.795 10.2545C11.795 9.61965 12.3096 9.10493 12.9446 9.10493H18.8535V10.2545H11.795Z" fill="#5A5A5C"/>
<path d="M10.7604 15.6576H21.2678C21.9027 15.6576 22.4174 16.1723 22.4174 16.8072H11.91C11.2751 16.8072 10.7604 16.2926 10.7604 15.6576Z" fill="#5A5A5C"/>
<path d="M11.5382 7.79893L10.4061 7.5993L9.10739 14.9647L10.2395 15.1643L11.5382 7.79893Z" fill="#FF0000"/>
<path d="M12.403 9.31964L12.403 9.31964C12.0903 9.26451 11.7922 9.47326 11.7371 9.78589L10.6992 15.672C10.6441 15.9846 10.8528 16.2828 11.1654 16.3379C11.4781 16.393 11.7762 16.1843 11.8313 15.8716L12.8692 9.98552C12.9243 9.67289 12.7156 9.37476 12.403 9.31964Z" fill="#5A5A5C"/>
</g>
<defs>
<clipPath id="clip0_434_377">
<rect width="24" height="24" fill="white"/>
</clipPath>
</defs>
</svg>
