<?xml version="1.0"?>
<svg width="500" height="500" xmlns="http://www.w3.org/2000/svg" xmlns:svg="http://www.w3.org/2000/svg" enable-background="new 0 0 500 500" version="1.1" xml:space="preserve">
 <g class="layer">
  <title>Layer 1</title>
  <g id="BACKGROUND">
   <circle cx="250" cy="248" fill="#698ACC" id="svg_1" r="183.35"/>
  </g>
  <g id="OBJECTS">
   <g id="svg_2">
    <g id="svg_3">
     <polygon fill="#FFFFFF" id="svg_4" points="     76.18,384.791 156.75,357.728 119.556,246.992 57.259,267.916 45.668,293.949    " stroke="#698ACC" stroke-linecap="round" stroke-linejoin="round" stroke-miterlimit="10" stroke-width="2"/>
     <polygon fill="#698ACC" id="svg_5" points="57.259,267.916 63.942,287.811 45.668,293.949    "/>
     <polygon fill="#99B5C6" id="svg_6" opacity="0.3" points="57.259,267.916 63.942,287.811 45.668,293.949 66.712,289.538    "/>
     <rect fill="#C1C1C1" height="3.45" id="svg_7" opacity="0.5" transform="matrix(0.948 -0.3184 0.3184 0.948 -84.1894 50.3613)" width="23" x="100.46" y="280.99"/>
     <rect fill="#C1C1C1" height="1.72" id="svg_8" opacity="0.5" transform="matrix(0.948 -0.3184 0.3184 0.948 -86.6901 48.8873)" width="38.32" x="87.04" y="288.77"/>
     <rect fill="#C1C1C1" height="1.73" id="svg_9" opacity="0.5" transform="matrix(0.948 -0.3184 0.3184 0.948 -105.6392 58.8625)" width="38.32" x="108.07" y="351.7"/>
     <rect fill="#C1C1C1" height="1.73" id="svg_10" opacity="0.5" transform="matrix(0.9479 -0.3185 0.3185 0.9479 -105.3112 61.6975)" width="21.85" x="125.12" y="352.07"/>
     <rect fill="#C1C1C1" height="3.07" id="svg_11" opacity="0.5" transform="matrix(0.948 -0.3184 0.3184 0.948 -93.0113 46.7348)" width="68.22" x="62.34" y="306.34"/>
     <rect fill="#C1C1C1" height="3.07" id="svg_12" opacity="0.5" transform="matrix(0.948 -0.3184 0.3184 0.948 -94.7911 47.6748)" width="68.22" x="64.33" y="312.26"/>
     <rect fill="#C1C1C1" height="3.07" id="svg_13" opacity="0.5" transform="matrix(0.948 -0.3184 0.3184 0.948 -96.5712 48.615)" width="68.22" x="66.31" y="318.18"/>
     <rect fill="#C1C1C1" height="3.07" id="svg_14" opacity="0.5" transform="matrix(0.9479 -0.3184 0.3184 0.9479 -98.3591 49.5609)" width="68.22" x="68.3" y="324.1"/>
     <rect fill="#C1C1C1" height="3.07" id="svg_15" opacity="0.5" transform="matrix(0.948 -0.3184 0.3184 0.948 -100.1316 50.4955)" width="68.22" x="70.29" y="330.02"/>
     <rect fill="#C1C1C1" height="3.07" id="svg_16" opacity="0.5" transform="matrix(0.948 -0.3184 0.3184 0.948 -101.9163 51.439)" width="68.22" x="72.28" y="335.94"/>
     <rect fill="#C1C1C1" height="3.07" id="svg_17" opacity="0.5" transform="matrix(0.948 -0.3184 0.3184 0.948 -103.6933 52.3771)" width="68.22" x="74.27" y="341.86"/>
     <rect fill="#C1C1C1" height="3.07" id="svg_18" opacity="0.5" transform="matrix(0.948 -0.3184 0.3184 0.948 -105.4796 53.3217)" width="68.22" x="76.26" y="347.78"/>
     <rect fill="#C1C1C1" height="1.73" id="svg_19" opacity="0.5" transform="matrix(0.948 -0.3184 0.3184 0.948 -87.5399 49.3347)" width="38.32" x="88" y="291.61"/>
     <rect fill="#C1C1C1" height="1.73" id="svg_20" opacity="0.5" transform="matrix(0.948 -0.3184 0.3184 0.948 -88.4001 49.7905)" width="38.32" x="88.95" y="294.45"/>
    </g>
    <g id="svg_21">
     <g id="svg_22">
      <path d="m400.99,329.6c-0.43,-0.01 -0.81,-0.29 -0.94,-0.7l-3.72,-11.65c-4.63,-0.37 -8.29,-4.27 -8.29,-9l0,-33.93c0,-4.98 4.05,-9.03 9.03,-9.03l55.28,0c4.98,0 9.03,4.05 9.03,9.03l0,33.93c0,4.98 -4.05,9.03 -9.03,9.03l-46.4,0l-4,11.65c-0.14,0.4 -0.52,0.67 -0.94,0.67c-0.01,0 -0.01,0 -0.02,0z" fill="#FFFFFF" id="svg_23"/>
      <path d="m452.35,266.29c4.44,0 8.03,3.59 8.03,8.03l0,33.93c0,4.44 -3.59,8.03 -8.03,8.03l-47.11,0l-4.24,12.32l-3.93,-12.32c-4.44,0 -8.03,-3.59 -8.03,-8.03l0,-33.93c0,-4.44 3.59,-8.03 8.03,-8.03l55.28,0m0,-2l-55.28,0c-5.53,0 -10.03,4.5 -10.03,10.03l0,33.93c0,5.02 3.71,9.2 8.53,9.92l3.53,11.04c0.26,0.82 1.02,1.38 1.88,1.39c0.01,0 0.02,0 0.02,0c0.86,0 1.62,-0.54 1.89,-1.35l3.77,-10.97l45.69,0c5.53,0 10.03,-4.5 10.03,-10.03l0,-33.93c0,-5.53 -4.5,-10.03 -10.03,-10.03l0,0z" fill="#698ACC" id="svg_24"/>
     </g>
     <g id="svg_25">
      <path d="m409.41,290.48c0,2.36 1.92,4.28 4.28,4.28s4.29,-1.92 4.29,-4.28c0,-2.37 -1.92,-4.29 -4.29,-4.29s-4.28,1.92 -4.28,4.29z" fill="#698ACC" id="svg_26"/>
      <path d="m421.04,290.48c0,2.36 1.92,4.28 4.28,4.28s4.28,-1.92 4.28,-4.28c0,-2.37 -1.91,-4.29 -4.28,-4.29s-4.28,1.92 -4.28,4.29z" fill="#698ACC" id="svg_27"/>
      <path d="m432.67,290.48c0,2.36 1.91,4.28 4.28,4.28c2.37,0 4.28,-1.92 4.28,-4.28c0,-2.37 -1.92,-4.29 -4.28,-4.29c-2.37,0 -4.28,1.92 -4.28,4.29z" fill="#698ACC" id="svg_28"/>
     </g>
    </g>
    <g id="svg_29">
     <path d="m416.61,123.04c0,-8.99 -7.29,-16.29 -16.29,-16.29c-3.57,0 -6.87,1.17 -9.56,3.12c0.01,-0.16 0.02,-0.32 0.02,-0.48c0,-16.53 -13.41,-29.94 -29.94,-29.94c-15.08,0 -27.56,11.16 -29.63,25.67c-3.54,-3.31 -8.27,-5.35 -13.5,-5.35c-10.92,0 -19.77,8.86 -19.77,19.78c0,10.66 8.44,19.33 19,19.74l0,0.04l83.96,0l0,-0.03c8.73,-0.31 15.71,-7.46 15.71,-16.26z" fill="#FFFFFF" id="svg_30" stroke="#698ACC" stroke-linecap="round" stroke-linejoin="round" stroke-miterlimit="10" stroke-width="2"/>
     <path d="m455.37,175.32c0,-5.05 -4.1,-9.15 -9.15,-9.15c-2.01,0 -3.86,0.66 -5.37,1.75c0,-0.09 0.01,-0.17 0.01,-0.26c0,-9.29 -7.53,-16.82 -16.82,-16.82c-8.47,0 -15.48,6.26 -16.64,14.41c-1.99,-1.85 -4.65,-3 -7.58,-3c-6.14,0 -11.11,4.98 -11.11,11.11c0,5.99 4.74,10.86 10.67,11.09l0,0.02l47.17,0l0,-0.01c4.9,-0.18 8.82,-4.19 8.82,-9.14z" fill="#FFFFFF" id="svg_31" stroke="#698ACC" stroke-linecap="round" stroke-linejoin="round" stroke-miterlimit="10" stroke-width="2"/>
    </g>
    <g id="svg_32">
     <g id="svg_33">
      <path d="m88.24,140.13c-1.35,0 -2.45,-1.1 -2.45,-2.45l0,-8.82c0,-1.36 1.1,-2.46 2.45,-2.46l112.59,0c1.35,0 2.45,1.1 2.45,2.46l0,8.82c0,1.35 -1.1,2.45 -2.45,2.45l-112.59,0z" fill="#FFFFFF" id="svg_34"/>
      <path d="m200.83,127.4c0.8,0 1.45,0.65 1.45,1.46l0,8.82c0,0.8 -0.65,1.45 -1.45,1.45l-112.59,0c-0.8,0 -1.45,-0.65 -1.45,-1.45l0,-8.82c0,-0.81 0.65,-1.46 1.45,-1.46l112.59,0m0,-2l-112.59,0c-1.9,0 -3.45,1.55 -3.45,3.46l0,8.82c0,1.9 1.55,3.45 3.45,3.45l112.59,0c1.9,0 3.45,-1.55 3.45,-3.45l0,-8.82c0,-1.91 -1.55,-3.46 -3.45,-3.46l0,0z" fill="#698ACC" id="svg_35"/>
     </g>
     <g id="svg_36">
      <path d="m88.24,122.6c-1.35,0 -2.45,-1.1 -2.45,-2.45l0,-8.82c0,-1.36 1.1,-2.45 2.45,-2.45l112.59,0c1.35,0 2.45,1.09 2.45,2.45l0,8.82c0,1.35 -1.1,2.45 -2.45,2.45l-112.59,0z" fill="#FFFFFF" id="svg_37"/>
      <path d="m200.83,109.88c0.8,0 1.45,0.65 1.45,1.45l0,8.82c0,0.8 -0.65,1.45 -1.45,1.45l-112.59,0c-0.8,0 -1.45,-0.65 -1.45,-1.45l0,-8.82c0,-0.81 0.65,-1.45 1.45,-1.45l112.59,0m0,-2l-112.59,0c-1.9,0 -3.45,1.54 -3.45,3.45l0,8.82c0,1.91 1.55,3.45 3.45,3.45l112.59,0c1.9,0 3.45,-1.55 3.45,-3.45l0,-8.82c0,-1.91 -1.55,-3.45 -3.45,-3.45l0,0z" fill="#698ACC" id="svg_38"/>
     </g>
     <g id="svg_39">
      <path d="m88.24,105.08c-1.35,0 -2.45,-1.1 -2.45,-2.45l0,-8.83c0,-1.35 1.1,-2.45 2.45,-2.45l112.59,0c1.35,0 2.45,1.1 2.45,2.45l0,8.83c0,1.35 -1.1,2.45 -2.45,2.45l-112.59,0z" fill="#FFFFFF" id="svg_40"/>
      <path d="m200.83,92.35c0.8,0 1.45,0.65 1.45,1.45l0,8.83c0,0.8 -0.65,1.45 -1.45,1.45l-112.59,0c-0.8,0 -1.45,-0.65 -1.45,-1.45l0,-8.83c0,-0.8 0.65,-1.45 1.45,-1.45l112.59,0m0,-2l-112.59,0c-1.9,0 -3.45,1.55 -3.45,3.45l0,8.83c0,1.9 1.55,3.45 3.45,3.45l112.59,0c1.9,0 3.45,-1.55 3.45,-3.45l0,-8.83c0,-1.9 -1.55,-3.45 -3.45,-3.45l0,0z" fill="#698ACC" id="svg_41"/>
     </g>
     <path d="m93.78,100.78l-2.53,0c-0.72,0 -1.31,-0.58 -1.31,-1.3l0,-2.53c0,-0.72 0.59,-1.31 1.31,-1.31l2.53,0c0.72,0 1.3,0.59 1.3,1.31l0,2.53c0,0.72 -0.58,1.3 -1.3,1.3z" fill="#698ACC" id="svg_42"/>
     <path d="m93.78,118.31l-2.53,0c-0.72,0 -1.31,-0.58 -1.31,-1.3l0,-2.53c0,-0.73 0.59,-1.31 1.31,-1.31l2.53,0c0.72,0 1.3,0.58 1.3,1.31l0,2.53c0,0.72 -0.58,1.3 -1.3,1.3z" fill="#698ACC" id="svg_43"/>
     <path d="m93.78,135.84l-2.53,0c-0.72,0 -1.31,-0.59 -1.31,-1.31l0,-2.53c0,-0.72 0.59,-1.3 1.31,-1.3l2.53,0c0.72,0 1.3,0.58 1.3,1.3l0,2.53c0,0.72 -0.58,1.31 -1.3,1.31z" fill="#698ACC" id="svg_44"/>
    </g>
    <g id="svg_45">
     <g id="svg_46">
      <path d="m333.82,447.82c-0.1,0 -0.21,-0.02 -0.31,-0.05l-94.35,-30.59c-0.52,-0.17 -0.81,-0.73 -0.64,-1.26l10.78,-33.23c0.08,-0.26 0.26,-0.47 0.49,-0.59c0.15,-0.07 0.3,-0.1 0.46,-0.1c0.1,0 0.21,0.01 0.31,0.04l94.34,30.6c0.53,0.17 0.82,0.73 0.65,1.26l-10.78,33.23c-0.08,0.25 -0.26,0.46 -0.5,0.58c-0.14,0.07 -0.29,0.11 -0.45,0.11z" fill="#FFFFFF" id="svg_47"/>
      <path d="m250.25,383l94.35,30.59l-10.78,33.23l-94.35,-30.59l10.78,-33.23m0,-2c-0.31,0 -0.62,0.07 -0.91,0.21c-0.47,0.24 -0.83,0.66 -0.99,1.17l-10.78,33.23c-0.16,0.51 -0.12,1.06 0.12,1.53c0.24,0.47 0.66,0.83 1.17,0.99l94.34,30.59c0.21,0.07 0.41,0.1 0.62,0.1c0.31,0 0.63,-0.07 0.91,-0.22c0.47,-0.24 0.83,-0.66 0.99,-1.16l10.78,-33.24c0.34,-1.05 -0.24,-2.18 -1.29,-2.52l-94.34,-30.59c-0.21,-0.06 -0.41,-0.09 -0.62,-0.09l0,0z" fill="#698ACC" id="svg_48"/>
     </g>
     <g id="svg_49">
      <path d="m333.82,447.82c-0.32,0 -0.63,-0.15 -0.82,-0.42l-35.34,-49.8l-57.85,19.54c-0.11,0.04 -0.22,0.05 -0.32,0.05c-0.26,0 -0.52,-0.1 -0.71,-0.29c-0.27,-0.26 -0.36,-0.66 -0.25,-1.02l18.84,-58.01c0.08,-0.25 0.26,-0.46 0.5,-0.58c0.14,-0.07 0.29,-0.11 0.45,-0.11c0.1,0 0.21,0.02 0.31,0.05l94.33,30.63c0.53,0.17 0.82,0.73 0.65,1.26l-18.84,58.01c-0.12,0.36 -0.43,0.62 -0.8,0.68c-0.05,0.01 -0.1,0.01 -0.15,0.01z" fill="#FFFFFF" id="svg_50"/>
      <path d="m258.32,358.18l94.33,30.63l-18.83,58.01l-35.78,-50.4l-58.55,19.77l18.83,-58.01m0,-2c-0.31,0 -0.62,0.07 -0.91,0.22c-0.47,0.24 -0.83,0.66 -0.99,1.16l-18.84,58.02c-0.23,0.72 -0.04,1.51 0.5,2.04c0.38,0.37 0.89,0.57 1.4,0.57c0.22,0 0.43,-0.03 0.64,-0.1l57.15,-19.3l34.92,49.19c0.38,0.53 0.99,0.84 1.63,0.84c0.1,0 0.2,-0.01 0.3,-0.02c0.75,-0.12 1.37,-0.64 1.6,-1.36l18.83,-58.02c0.17,-0.5 0.13,-1.05 -0.12,-1.52c-0.24,-0.48 -0.66,-0.83 -1.16,-1l-94.33,-30.62c-0.2,-0.07 -0.41,-0.1 -0.62,-0.1l0,0z" fill="#698ACC" id="svg_51"/>
     </g>
     <g id="svg_52">
      <path d="m303.96,415.1c-0.6,0 -1.16,-0.08 -1.63,-0.23l-19.12,-6.21c-1.32,-0.43 -2.76,-1.69 -3.36,-2.94l-21.58,-45.31c-0.49,-1.02 -0.23,-1.69 -0.04,-1.99c0.29,-0.46 0.81,-0.73 1.42,-0.73c0.27,0 0.56,0.05 0.87,0.15l90.53,29.4c1.28,0.41 1.48,1.24 1.51,1.57c0.03,0.34 -0.03,1.19 -1.21,1.82l-44.57,23.84c-0.75,0.4 -1.78,0.63 -2.82,0.63z" fill="#FFFFFF" id="svg_53"/>
      <path d="m259.65,358.69c0.16,0 0.35,0.04 0.56,0.1l90.53,29.4c1.05,0.34 1.11,1.04 0.14,1.56l-44.58,23.84c-0.61,0.33 -1.5,0.51 -2.34,0.51c-0.48,0 -0.94,-0.06 -1.32,-0.18l-19.12,-6.21c-1.05,-0.34 -2.29,-1.43 -2.77,-2.42l-21.58,-45.31c-0.38,-0.79 -0.16,-1.29 0.48,-1.29m0,-2l0,0c-0.96,0 -1.79,0.44 -2.27,1.19c-0.3,0.49 -0.71,1.51 -0.02,2.96l21.59,45.31c0.71,1.49 2.37,2.95 3.95,3.46l19.12,6.21c0.57,0.19 1.22,0.28 1.94,0.28c1.2,0 2.4,-0.27 3.28,-0.74l44.58,-23.85c1.71,-0.91 1.78,-2.25 1.74,-2.79c-0.05,-0.53 -0.36,-1.84 -2.2,-2.44l-90.53,-29.39c-0.41,-0.13 -0.81,-0.2 -1.18,-0.2l0,0z" fill="#698ACC" id="svg_54"/>
     </g>
    </g>
   </g>
   <g id="svg_55">
    <ellipse cx="249.72" cy="365.94" fill="#99B5C6" id="svg_56" opacity="0.3" rx="94.73" ry="9.93"/>
    <path d="m126.51,263.11l-5.88,60.9c-0.4,4.09 3.25,7.42 7.29,6.66l20.03,-3.79l-17.9,-4.68l-3.54,-59.09z" fill="#99B5C6" id="svg_57" opacity="0.3"/>
    <g id="svg_58">
     <g id="svg_59">
      <rect fill="#FFFFFF" height="39.62" id="svg_60" width="85.84" x="206.8" y="322.2"/>
      <path d="m318.77,365.12c0,0.9 -0.74,1.65 -1.65,1.65l-134.8,0c-0.91,0 -1.66,-0.75 -1.66,-1.65l0,-6.61c0,-0.9 0.75,-1.65 1.66,-1.65l134.8,0c0.91,0 1.65,0.75 1.65,1.65l0,6.61z" fill="#FFFFFF" id="svg_61"/>
      <g id="svg_62">
       <path d="m372.93,322.88c0,2.19 -1.8,4 -4,4l-238.42,0c-2.2,0 -4,-1.81 -4,-4l0,-158.73c0,-2.2 1.8,-4 4,-4l238.42,0c2.2,0 4,1.8 4,4l0,158.73z" fill="#FFFFFF" id="svg_63"/>
      </g>
      <rect fill="#99B5C6" height="6.57" id="svg_64" opacity="0.3" width="86.24" x="206.39" y="326.88"/>
      <rect fill="#99B5C6" height="1.7" id="svg_65" opacity="0.3" width="86.24" x="206.39" y="355.16"/>
      <rect fill="#0A1D35" height="147.19" id="svg_66" width="237.15" x="131.14" y="165.11"/>
      <rect fill="#9ABAD8" height="2.67" id="svg_67" opacity="0.5" width="237.26" x="131.14" y="165.11"/>
     </g>
     <path d="m317.17,366.77l-134.97,0c-0.85,0 -1.54,-0.69 -1.54,-1.53l0,-0.12l138.11,0l0,0.05c0,0.88 -0.71,1.6 -1.6,1.6z" fill="#99B5C6" id="svg_68" opacity="0.3"/>
     <path d="m252.4,319.52c0,1.48 -1.2,2.68 -2.68,2.68c-1.48,0 -2.68,-1.2 -2.68,-2.68c0,-1.49 1.2,-2.69 2.68,-2.69c1.48,0 2.68,1.2 2.68,2.69z" fill="#0A1D35" id="svg_69"/>
    </g>
    <g id="svg_70">
     <g id="svg_71">
      <path d="m299.01,290.3l3.52,-0.69l0,-7.19l-3.5,-0.76c-0.32,-1.12 -0.76,-2.18 -1.31,-3.18l2,-2.98l-5.09,-5.08l-3.02,1.94c-0.99,-0.55 -2.05,-1 -3.17,-1.32l-0.69,-3.52l-7.18,0l-0.77,3.5c-1.12,0.32 -2.17,0.76 -3.17,1.31l-2.98,-2l-5.08,5.09l1.93,3.02c-0.55,0.99 -0.99,2.05 -1.32,3.16l-3.52,0.7l0.01,7.19l3.5,0.77c0.32,1.11 0.76,2.16 1.3,3.16l-1.99,2.98l5.08,5.09l3.02,-1.94c1,0.56 2.05,1 3.17,1.32l0.69,3.52l7.19,0l0.76,-3.5c1.12,-0.33 2.18,-0.76 3.18,-1.31l2.98,2l5.08,-5.09l-1.94,-3.02c0.56,-1 1,-2.05 1.32,-3.17zm-24.9,-4.35c0,-5.51 4.47,-9.99 9.99,-9.99c5.51,0 9.98,4.48 9.98,9.99c0,5.52 -4.47,9.99 -9.98,9.99c-5.52,0 -9.99,-4.47 -9.99,-9.99z" fill="#FFFFFF" id="svg_72"/>
      <path d="m345.68,268.26l5.13,-1.01l0,-10.48l-5.11,-1.12c-0.46,-1.63 -1.1,-3.17 -1.9,-4.62l2.91,-4.34l-7.41,-7.41l-4.41,2.82c-1.44,-0.81 -2.99,-1.45 -4.61,-1.93l-1.01,-5.12l-10.48,0l-1.12,5.1c-1.62,0.47 -3.16,1.11 -4.62,1.91l-4.34,-2.92l-7.41,7.42l2.82,4.4c-0.8,1.46 -1.45,2.99 -1.92,4.62l-5.14,1l0.01,10.49l5.11,1.11c0.47,1.63 1.11,3.17 1.9,4.62l-2.91,4.35l7.41,7.4l4.4,-2.81c1.45,0.8 2.99,1.44 4.62,1.91l1.01,5.13l10.48,0l1.11,-5.1c1.63,-0.47 3.17,-1.11 4.63,-1.91l4.35,2.92l7.4,-7.42l-2.82,-4.4c0.8,-1.45 1.45,-2.99 1.92,-4.61zm-36.3,-6.35c0,-8.03 6.52,-14.55 14.56,-14.55c8.03,0 14.56,6.52 14.56,14.55c0,8.04 -6.53,14.56 -14.56,14.56c-8.04,0 -14.56,-6.52 -14.56,-14.56z" fill="#FFFFFF" id="svg_73"/>
     </g>
     <g id="svg_74" opacity="0.2">
      <path d="m206.73,189.59l-25.23,0c-0.8,0 -1.45,-0.65 -1.45,-1.45l0,-4.21c0,-0.8 0.65,-1.46 1.45,-1.46l25.23,0c0.81,0 1.46,0.66 1.46,1.46l0,4.21c0,0.8 -0.65,1.45 -1.46,1.45z" fill="#FFFFFF" id="svg_75"/>
      <path d="m267.61,189.59l-55.09,0c-0.81,0 -1.46,-0.65 -1.46,-1.45l0,-4.21c0,-0.8 0.65,-1.46 1.46,-1.46l55.09,0c0.8,0 1.45,0.66 1.45,1.46l0,4.21c0,0.8 -0.65,1.45 -1.45,1.45z" fill="#FFFFFF" id="svg_76"/>
      <path d="m248.65,201.84l-67.15,0c-0.8,0 -1.45,-0.65 -1.45,-1.45l0,-4.21c0,-0.8 0.65,-1.45 1.45,-1.45l67.15,0c0.8,0 1.45,0.65 1.45,1.45l0,4.21c0,0.8 -0.65,1.45 -1.45,1.45z" fill="#FFFFFF" id="svg_77"/>
      <path d="m278.69,201.84l-24.26,0c-0.8,0 -1.45,-0.65 -1.45,-1.45l0,-4.21c0,-0.8 0.65,-1.45 1.45,-1.45l24.26,0c0.81,0 1.46,0.65 1.46,1.45l0,4.21c0,0.8 -0.65,1.45 -1.46,1.45z" fill="#FFFFFF" id="svg_78"/>
      <path d="m225.57,214.1l-44.07,0c-0.8,0 -1.45,-0.65 -1.45,-1.46l0,-4.21c0,-0.8 0.65,-1.45 1.45,-1.45l44.07,0c0.8,0 1.45,0.65 1.45,1.45l0,4.21c0,0.81 -0.65,1.46 -1.45,1.46z" fill="#FFFFFF" id="svg_79"/>
      <path d="m266.2,214.1l-34.85,0c-0.8,0 -1.45,-0.65 -1.45,-1.46l0,-4.21c0,-0.8 0.65,-1.45 1.45,-1.45l34.85,0c0.8,0 1.45,0.65 1.45,1.45l0,4.21c0,0.81 -0.65,1.46 -1.45,1.46z" fill="#FFFFFF" id="svg_80"/>
      <path d="m237.75,226.35l-56.25,0c-0.8,0 -1.45,-0.65 -1.45,-1.45l0,-4.21c0,-0.8 0.65,-1.45 1.45,-1.45l56.25,0c0.8,0 1.45,0.65 1.45,1.45l0,4.21c0,0.8 -0.65,1.45 -1.45,1.45z" fill="#FFFFFF" id="svg_81"/>
      <path d="m271.54,226.35l-28.01,0c-0.8,0 -1.45,-0.65 -1.45,-1.45l0,-4.21c0,-0.8 0.65,-1.45 1.45,-1.45l28.01,0c0.81,0 1.46,0.65 1.46,1.45l0,4.21c0,0.8 -0.65,1.45 -1.46,1.45z" fill="#FFFFFF" id="svg_82"/>
      <path d="m224.13,238.6l-42.63,0c-0.8,0 -1.45,-0.65 -1.45,-1.45l0,-4.21c0,-0.8 0.65,-1.45 1.45,-1.45l42.63,0c0.8,0 1.45,0.65 1.45,1.45l0,4.21c0,0.8 -0.65,1.45 -1.45,1.45z" fill="#FFFFFF" id="svg_83"/>
      <path d="m266.2,238.6l-36.29,0c-0.8,0 -1.45,-0.65 -1.45,-1.45l0,-4.21c0,-0.8 0.65,-1.45 1.45,-1.45l36.29,0c0.8,0 1.45,0.65 1.45,1.45l0,4.21c0,0.8 -0.65,1.45 -1.45,1.45z" fill="#FFFFFF" id="svg_84"/>
      <path d="m252.13,250.86l-70.63,0c-0.8,0 -1.45,-0.65 -1.45,-1.45l0,-4.22c0,-0.8 0.65,-1.45 1.45,-1.45l70.63,0c0.8,0 1.45,0.65 1.45,1.45l0,4.22c0,0.8 -0.65,1.45 -1.45,1.45z" fill="#FFFFFF" id="svg_85"/>
      <path d="m271.54,250.86l-13.63,0c-0.8,0 -1.45,-0.65 -1.45,-1.45l0,-4.22c0,-0.8 0.65,-1.45 1.45,-1.45l13.63,0c0.81,0 1.46,0.65 1.46,1.45l0,4.22c0,0.8 -0.65,1.45 -1.46,1.45z" fill="#FFFFFF" id="svg_86"/>
      <path d="m220.11,263.11l-38.61,0c-0.8,0 -1.45,-0.65 -1.45,-1.45l0,-4.21c0,-0.8 0.65,-1.45 1.45,-1.45l38.61,0c0.8,0 1.45,0.65 1.45,1.45l0,4.21c0,0.8 -0.65,1.45 -1.45,1.45z" fill="#FFFFFF" id="svg_87"/>
     </g>
     <path d="m142.64,263.11l26.4,0c2.01,0 3.64,-1.63 3.64,-3.64l0,-73.36c0,-2.01 -1.63,-3.63 -3.64,-3.63l-26.4,0c-2.01,0 -3.64,1.62 -3.64,3.63l0,73.36c0,2.01 1.63,3.64 3.64,3.64z" fill="#FFFFFF" id="svg_88"/>
     <circle cx="155.84" cy="222.79" fill="#0A1D35" id="svg_89" r="11.35"/>
     <path d="m154.73,226.27l0,-7.31c0,-0.3 0.36,-0.45 0.57,-0.24l3.66,3.66c0.13,0.13 0.13,0.34 0,0.47l-3.66,3.66c-0.21,0.21 -0.57,0.06 -0.57,-0.24z" fill="#EAEAEA" id="svg_90"/>
     <g id="svg_91">
      <g id="svg_92">
       <path d="m141.89,304.69l97.3,0c1.59,0 2.89,-1.3 2.89,-2.89l0,-23.8c0,-1.59 -1.3,-2.88 -2.89,-2.88l-97.3,0c-1.59,0 -2.89,1.29 -2.89,2.88l0,23.8c0,1.59 1.3,2.89 2.89,2.89z" fill="#FF6724" id="svg_93"/>
      </g>
      <path d="m159.19,299.17l-14.47,0c0,-4 3.24,-7.24 7.24,-7.24c3.99,0 7.23,3.24 7.23,7.24zm-7.23,-16.69c-2.23,0 -4.04,1.8 -4.04,4.03s1.8,4.04 4.04,4.04c2.23,0 4.03,-1.8 4.03,-4.04s-1.8,-4.03 -4.03,-4.03z" fill="#0A1D35" id="svg_94"/>
      <path d="m195.99,286.57l-23.96,0c-0.8,0 -1.45,-0.65 -1.45,-1.45l0,-0.78c0,-0.8 0.65,-1.45 1.45,-1.45l23.96,0c0.81,0 1.46,0.65 1.46,1.45l0,0.78c0,0.8 -0.65,1.45 -1.46,1.45z" fill="#0A1D35" id="svg_95"/>
      <path d="m210.83,291.21l-39.18,0c-0.59,0 -1.07,-0.48 -1.07,-1.08l0,-0.11c0,-0.59 0.48,-1.07 1.07,-1.07l39.17,0c0.6,0 1.08,0.48 1.08,1.07l0,0.11c0,0.6 -0.48,1.08 -1.07,1.08z" fill="#0A1D35" id="svg_96"/>
      <path d="m193.98,294.91l-22.33,0c-0.59,0 -1.07,-0.48 -1.07,-1.07l0,-0.11c0,-0.6 0.48,-1.08 1.07,-1.08l22.33,0c0.59,0 1.07,0.48 1.07,1.08l0,0.11c0,0.59 -0.48,1.07 -1.07,1.07z" fill="#0A1D35" id="svg_97"/>
      <path d="m219.9,294.91l-22.33,0c-0.59,0 -1.07,-0.48 -1.07,-1.07l0,-0.11c0,-0.6 0.48,-1.08 1.07,-1.08l22.33,0c0.59,0 1.07,0.48 1.07,1.08l0,0.11c0,0.59 -0.48,1.07 -1.07,1.07z" fill="#0A1D35" id="svg_98"/>
      <path d="m210.83,298.62l-39.18,0c-0.59,0 -1.07,-0.48 -1.07,-1.08l0,-0.11c0,-0.59 0.48,-1.07 1.07,-1.07l39.17,0c0.6,0 1.08,0.48 1.08,1.07l0,0.11c0,0.6 -0.48,1.08 -1.07,1.08z" fill="#0A1D35" id="svg_99"/>
      <path d="m228.37,286.57l-27.51,0c-0.8,0 -1.45,-0.65 -1.45,-1.45l0,-0.78c0,-0.8 0.65,-1.45 1.45,-1.45l27.51,0c0.8,0 1.45,0.65 1.45,1.45l0,0.78c0,0.8 -0.65,1.45 -1.45,1.45z" fill="#0A1D35" id="svg_100"/>
     </g>
     <path d="m302.91,219.33l45.79,0c3.23,0 5.85,-2.62 5.85,-5.85l0,-25.38c0,-3.23 -2.62,-5.85 -5.85,-5.85l-45.79,0c-3.23,0 -5.85,2.62 -5.85,5.85l0,25.38c0,3.23 2.62,5.85 5.85,5.85z" fill="#FFAA22" id="svg_101"/>
     <rect fill="#FFFFFF" height="10" id="svg_102" opacity="0.2" width="237.15" x="131.14" y="165.11"/>
     <path d="m363.23,170.11c0,0.95 -0.77,1.72 -1.72,1.72c-0.95,0 -1.72,-0.77 -1.72,-1.72c0,-0.95 0.77,-1.73 1.72,-1.73c0.95,0 1.72,0.78 1.72,1.73z" fill="#FFFFFF" id="svg_103"/>
     <circle cx="356.27" cy="170.11" fill="#FFFFFF" id="svg_104" r="1.72"/>
     <circle cx="351.04" cy="170.11" fill="#FFFFFF" id="svg_105" r="1.72"/>
     <g id="svg_106">
      <path d="m310.84,202.26l0,-2.18l8.55,-3.52l0,2.92l-4.31,1.69l4.31,1.73l0,2.86l-8.55,-3.5z" id="svg_107"/>
      <path d="m327.74,194.45l2.84,0l-7.16,15.33l-2.84,0l7.16,-15.33z" id="svg_108"/>
      <path d="m332.22,205.76l0,-2.9l4.31,-1.69l-4.31,-1.73l0,-2.88l8.55,3.52l0,2.18l-8.55,3.5z" id="svg_109"/>
     </g>
    </g>
   </g>
  </g>
 </g>
</svg>